<svg height="512" viewBox="0 0 512 512" width="512" xmlns="http://www.w3.org/2000/svg"><path d="m368 80h-56a8 8 0 0 1 -8-8v-16l-4-4.3 4-3.7h64l-16 16z" fill="#3775a4"/><path d="m456 488h-392a376.933 376.933 0 0 0 24-132.352v-66.648l344-1v67.648a376.933 376.933 0 0 0 24 132.352z" fill="#f55648"/><path d="m256 24h40a8 8 0 0 1 8 8v24a0 0 0 0 1 0 0h-48a0 0 0 0 1 0 0v-32a0 0 0 0 1 0 0z" fill="#428dc5"/><path d="m448 296h-384l17.46-13.43a872.267 872.267 0 0 0 127.41-120.21q13.665-15.78 26.59-32.22l20.54-26.14 20.54 26.14q12.915 16.44 26.59 32.22a872.267 872.267 0 0 0 127.41 120.21z" fill="#ff5a4b"/><path d="m256 104v17.011a341.135 341.135 0 0 0 41.655 163.356l6.345 11.633h-96l6.345-11.633a341.135 341.135 0 0 0 41.655-163.356z" fill="#fbb540"/><path d="m360 488-6.345-11.633a341.135 341.135 0 0 1 -41.655-163.356v-17.011h-104v17.011a341.135 341.135 0 0 1 -41.655 163.356l-6.345 11.633z" fill="#ea9d2d"/><path d="m408 296v17.011a341.135 341.135 0 0 0 41.655 163.356l6.345 11.633h-48l-6.345-11.633a341.135 341.135 0 0 1 -41.655-163.356v-17.011z" fill="#ea9d2d"/><path d="m304 488h-96v-40l48-80 48 80z" fill="#c38325"/><path d="m239.155 470.311 8.845 17.689h-40v-32l24-16a67.785 67.785 0 0 0 7.155 30.311z" fill="#3775a4"/><path d="m276.422 463.155-12.422 24.845h40v-32l-24-8a33.883 33.883 0 0 1 -3.578 15.155z" fill="#3775a4"/><path d="m64 488 6.345-11.633a341.135 341.135 0 0 0 41.655-163.356v-17.011h48v17.011a341.135 341.135 0 0 1 -41.655 163.356l-6.345 11.633z" fill="#ea9d2d"/><path d="m256 368v47.015a42.246 42.246 0 0 1 -32 40.985h-16v-8z" fill="#428dc5"/><path d="m256 368v47.015a42.246 42.246 0 0 0 32 40.985h16v-8z" fill="#428dc5"/><path d="m256 144a8 8 0 0 1 -8-8v-112a8 8 0 0 1 16 0v112a8 8 0 0 1 -8 8z" fill="#a8a8a8"/><path d="m400 296-38.332-43.807a460.247 460.247 0 0 1 -32.869-42.3l-72.799-105.893 27.917 67.8a459.921 459.921 0 0 0 76.083 124.2z" fill="#fbb540"/><path d="m256 104-72.8 105.89a460.247 460.247 0 0 1 -32.869 42.3l-38.331 43.81h40a459.921 459.921 0 0 0 76.083-124.2z" fill="#fbb540"/><path d="m303.13 162.36a106.7 106.7 0 0 1 -94.26 0q13.665-15.78 26.59-32.22l20.54-26.14 20.54 26.14q12.915 16.44 26.59 32.22z" fill="#ff5a4b"/><path d="m64 296h48a0 0 0 0 1 0 0v24a24 24 0 0 1 -24 24 24 24 0 0 1 -24-24v-24a0 0 0 0 1 0 0z" fill="#dc4d41"/><path d="m112 296h48a0 0 0 0 1 0 0v24a24 24 0 0 1 -24 24 24 24 0 0 1 -24-24v-24a0 0 0 0 1 0 0z" fill="#da922a"/><path d="m160 296h48a0 0 0 0 1 0 0v24a24 24 0 0 1 -24 24 24 24 0 0 1 -24-24v-24a0 0 0 0 1 0 0z" fill="#dc4d41"/><path d="m208 296h48a0 0 0 0 1 0 0v24a24 24 0 0 1 -24 24 24 24 0 0 1 -24-24v-24a0 0 0 0 1 0 0z" fill="#da922a"/><path d="m256 296h48a0 0 0 0 1 0 0v24a24 24 0 0 1 -24 24 24 24 0 0 1 -24-24v-24a0 0 0 0 1 0 0z" fill="#dc4d41"/><path d="m304 296h48a0 0 0 0 1 0 0v24a24 24 0 0 1 -24 24 24 24 0 0 1 -24-24v-24a0 0 0 0 1 0 0z" fill="#da922a"/><path d="m352 296h48a0 0 0 0 1 0 0v24a24 24 0 0 1 -24 24 24 24 0 0 1 -24-24v-24a0 0 0 0 1 0 0z" fill="#dc4d41"/><path d="m400 296h48a0 0 0 0 1 0 0v24a24 24 0 0 1 -24 24 24 24 0 0 1 -24-24v-24a0 0 0 0 1 0 0z" fill="#da922a"/></svg>