<svg width="198" height="325" viewBox="0 0 198 325" fill="none" xmlns="http://www.w3.org/2000/svg">
<path d="M174.515 2.15959C174.992 2.15588 175.858 2.46595 177.066 4.03792C178.24 5.56536 179.464 7.94783 180.687 11.2114C183.124 17.7153 185.383 27.2499 187.323 39.1751C191.198 62.9944 193.746 95.9934 194.031 132.512C194.315 169.03 192.281 202.064 188.777 225.941C187.023 237.895 184.913 247.464 182.577 254.005C181.406 257.287 180.218 259.688 179.069 261.234C177.885 262.824 177.024 263.148 176.547 263.152C176.07 263.155 175.204 262.845 173.996 261.273C172.823 259.746 171.598 257.363 170.375 254.1C167.939 247.596 165.68 238.061 163.739 226.136C159.864 202.317 157.316 169.318 157.032 132.8C156.747 96.2815 158.781 63.2468 162.285 39.3701C164.039 27.4161 166.15 17.8475 168.485 11.3064C169.657 8.0242 170.844 5.62294 171.994 4.07741C173.177 2.48682 174.038 2.1633 174.515 2.15959Z" stroke="#3EBD2A" stroke-width="4"/>
<path d="M20.515 2.15959C20.9918 2.15588 21.858 2.46595 23.0659 4.03792C24.2395 5.56536 25.4643 7.94783 26.6869 11.2114C29.1236 17.7153 31.3826 27.2499 33.3228 39.1751C37.1982 62.9944 39.7462 95.9934 40.0306 132.512C40.3149 169.03 38.2811 202.064 34.7771 225.941C33.0228 237.895 30.9126 247.464 28.5775 254.005C27.4058 257.287 26.2183 259.688 25.0686 261.234C23.8853 262.824 23.0241 263.148 22.5473 263.152C22.0705 263.155 21.2043 262.845 19.9964 261.273C18.8228 259.746 17.598 257.363 16.3754 254.1C13.9387 247.596 11.6797 238.061 9.73947 226.136C5.86409 202.317 3.31607 169.318 3.03172 132.8C2.74736 96.2815 4.7812 63.2468 8.28519 39.3701C10.0395 27.4161 12.1497 17.8475 14.4848 11.3064C15.6565 8.0242 16.844 5.62294 17.9937 4.07741C19.177 2.48682 20.0382 2.1633 20.515 2.15959Z" stroke="#3EBD2A" stroke-width="4"/>
<line x1="100.577" y1="39" x2="100.577" y2="182" stroke="black" stroke-width="20"/>
<line x1="100.077" y1="178.122" x2="53.0772" y2="321.122" stroke="black" stroke-width="20"/>
<line x1="176.48" y1="100.875" x2="26.888" y2="84.1382" stroke="black" stroke-width="20"/>
<line x1="101.589" y1="182.666" x2="164.589" y2="313.666" stroke="black" stroke-width="20"/>
</svg>
