<svg width="265" height="93" viewBox="0 0 265 93" fill="none" xmlns="http://www.w3.org/2000/svg">
<path d="M263 20.5C263 20.9768 262.683 21.8405 261.102 23.0361C259.565 24.1979 257.173 25.404 253.9 26.6012C247.378 28.9872 237.826 31.1719 225.886 33.0192C202.037 36.709 169.019 39 132.5 39C95.9808 39 62.9628 36.709 39.1141 33.0192C27.1742 31.1719 17.6223 28.9872 11.0996 26.6012C7.82659 25.404 5.43466 24.1979 3.89813 23.0361C2.3168 21.8405 2 20.9768 2 20.5C2 20.0232 2.3168 19.1595 3.89813 17.9639C5.43466 16.8021 7.82659 15.596 11.0996 14.3988C17.6223 12.0128 27.1742 9.82811 39.1141 7.98079C62.9628 4.291 95.9808 2 132.5 2C169.019 2 202.037 4.291 225.886 7.98079C237.826 9.82811 247.378 12.0128 253.9 14.3988C257.173 15.596 259.565 16.8021 261.102 17.9639C262.683 19.1595 263 20.0232 263 20.5Z" stroke="#FAFF0F" stroke-width="4"/>
<path d="M263 36.5C263 36.9768 262.683 37.8405 261.102 39.0361C259.565 40.1979 257.173 41.404 253.9 42.6012C247.378 44.9872 237.826 47.1719 225.886 49.0192C202.037 52.709 169.019 55 132.5 55C95.9808 55 62.9628 52.709 39.1141 49.0192C27.1742 47.1719 17.6223 44.9872 11.0996 42.6012C7.82659 41.404 5.43466 40.1979 3.89813 39.0361C2.3168 37.8405 2 36.9768 2 36.5C2 36.0232 2.3168 35.1595 3.89813 33.9639C5.43466 32.8021 7.82659 31.596 11.0996 30.3988C17.6223 28.0128 27.1742 25.8281 39.1141 23.9808C62.9628 20.291 95.9808 18 132.5 18C169.019 18 202.037 20.291 225.886 23.9808C237.826 25.8281 247.378 28.0128 253.9 30.3988C257.173 31.596 259.565 32.8021 261.102 33.9639C262.683 35.1595 263 36.0232 263 36.5Z" stroke="#FAFF0F" stroke-width="4"/>
<path d="M263 52.5C263 52.9768 262.683 53.8405 261.102 55.0361C259.565 56.1979 257.173 57.404 253.9 58.6012C247.378 60.9872 237.826 63.1719 225.886 65.0192C202.037 68.709 169.019 71 132.5 71C95.9808 71 62.9628 68.709 39.1141 65.0192C27.1742 63.1719 17.6223 60.9872 11.0996 58.6012C7.82659 57.404 5.43466 56.1979 3.89813 55.0361C2.3168 53.8405 2 52.9768 2 52.5C2 52.0232 2.3168 51.1595 3.89813 49.9639C5.43466 48.8021 7.82659 47.596 11.0996 46.3988C17.6223 44.0128 27.1742 41.8281 39.1141 39.9808C62.9628 36.291 95.9808 34 132.5 34C169.019 34 202.037 36.291 225.886 39.9808C237.826 41.8281 247.378 44.0128 253.9 46.3988C257.173 47.596 259.565 48.8021 261.102 49.9639C262.683 51.1595 263 52.0232 263 52.5Z" stroke="#FAFF0F" stroke-width="4"/>
<path d="M263 72.5C263 72.9768 262.683 73.8405 261.102 75.0361C259.565 76.1979 257.173 77.404 253.9 78.6012C247.378 80.9872 237.826 83.1719 225.886 85.0192C202.037 88.709 169.019 91 132.5 91C95.9808 91 62.9628 88.709 39.1141 85.0192C27.1742 83.1719 17.6223 80.9872 11.0996 78.6012C7.82659 77.404 5.43466 76.1979 3.89813 75.0361C2.3168 73.8405 2 72.9768 2 72.5C2 72.0232 2.3168 71.1595 3.89813 69.9639C5.43466 68.8021 7.82659 67.596 11.0996 66.3988C17.6223 64.0128 27.1742 61.8281 39.1141 59.9808C62.9628 56.291 95.9808 54 132.5 54C169.019 54 202.037 56.291 225.886 59.9808C237.826 61.8281 247.378 64.0128 253.9 66.3988C257.173 67.596 259.565 68.8021 261.102 69.9639C262.683 71.1595 263 72.0232 263 72.5Z" stroke="#FAFF0F" stroke-width="4"/>
</svg>
